<svg width="24" height="24" viewBox="0 0 24 24" fill="none" xmlns="http://www.w3.org/2000/svg">
<path d="M4 7H5.77778L20 7" stroke="#E66800" stroke-width="2" stroke-linecap="round" stroke-linejoin="round"/>
<path d="M8.57143 7V5C8.57143 4.46957 8.75204 3.96086 9.07353 3.58579C9.39502 3.21071 9.83106 3 10.2857 3H13.7143C14.1689 3 14.605 3.21071 14.9265 3.58579C15.248 3.96086 15.4286 4.46957 15.4286 5V7M18 7V19C18 19.5304 17.8194 20.0391 17.4979 20.4142C17.1764 20.7893 16.7404 21 16.2857 21H12H7.71429C7.25963 21 6.82359 20.7893 6.5021 20.4142C6.18061 20.0391 6 19.5304 6 19V7H18Z" stroke="#E66800" stroke-width="2" stroke-linecap="round" stroke-linejoin="round"/>
<path d="M10 11V17" stroke="#E66800" stroke-width="2" stroke-linecap="round" stroke-linejoin="round"/>
<path d="M14 11V17" stroke="#E66800" stroke-width="2" stroke-linecap="round" stroke-linejoin="round"/>
</svg>
